ffprobe version 4.1.3 Copyright (c) 2007-2019 the FFmpeg developers
  built with Apple LLVM version 10.0.1 (clang-1001.0.46.3)
  configuration: --prefix=/usr/local/Cellar/ffmpeg/4.1.3 --enable-shared --enable-pthreads --enable-version3 --enable-hardcoded-tables --enable-avresample --cc=clang --host-cflags='-I/Library/Java/JavaVirtualMachines/openjdk-12.jdk/Contents/Home/include -I/Library/Java/JavaVirtualMachines/openjdk-12.jdk/Contents/Home/include/darwin' --host-ldflags= --enable-ffplay --enable-gnutls --enable-gpl --enable-libaom --enable-libbluray --enable-libmp3lame --enable-libopus --enable-librubberband --enable-libsnappy --enable-libtesseract --enable-libtheora --enable-libvorbis --enable-libvpx --enable-libx264 --enable-libx265 --enable-libxvid --enable-lzma --enable-libfontconfig --enable-libfreetype --enable-frei0r --enable-libass --enable-libopencore-amrnb --enable-libopencore-amrwb --enable-libopenjpeg --enable-librtmp --enable-libspeex --enable-videotoolbox --disable-libjack --disable-indev=jack --enable-libaom --enable-libsoxr
  libavutil      56. 22.100 / 56. 22.100
  libavcodec     58. 35.100 / 58. 35.100
  libavformat    58. 20.100 / 58. 20.100
  libavdevice    58.  5.100 / 58.  5.100
  libavfilter     7. 40.101 /  7. 40.101
  libavresample   4.  0.  0 /  4.  0.  0
  libswscale      5.  3.100 /  5.  3.100
  libswresample   3.  3.100 /  3.  3.100
  libpostproc    55.  3.100 / 55.  3.100
Input #0, mov,mp4,m4a,3gp,3g2,mj2, from '2.mp4':
  Metadata:
    major_brand     : isom
    minor_version   : 512
    compatible_brands: isomiso2mp41
    encoder         : Lavf57.41.100
  Duration: 00:00:17.67, start: 0.000000, bitrate: 3513 kb/s
    Stream #0:0(eng): Video: mpeg4 (Simple Profile) (mp4v / 0x7634706D), yuv420p, 1080x1920 [SAR 1:1 DAR 9:16], 3380 kb/s, 23.98 fps, 23.98 tbr, 11988 tbn, 2997 tbc (default)
    Metadata:
      handler_name    : VideoHandler
      timecode        : 00:00:06:07
    Stream #0:1(eng): Audio: aac (LC) (mp4a / 0x6134706D), 44100 Hz, stereo, fltp, 131 kb/s (default)
    Metadata:
      handler_name    : SoundHandler
    Stream #0:2(eng): Data: none (tmcd / 0x64636D74), 0 kb/s
    Metadata:
      handler_name    : TimeCodeHandler
      timecode        : 00:00:06:07